Coordinates
version=1
nRows=74
nColumns=11
inDegrees=no

Units are S.I. units (second, meters, Newtons, ...)
If the header above contains a line with 'inDegrees', this indicates whether rotational values are in degrees (yes) or radians (no).

endheader
time	pelvis_tilt	pelvis_tx	pelvis_ty	hip_flexion_r	knee_angle_r	ankle_angle_r	hip_flexion_l	knee_angle_l	ankle_angle_l	lumbar_extension
0.01	-0.0602614	0.197665	1.01301	0.00439118	-0.0556535	0.307938	-0.0373404	0.0872438	0.236156	0
0.02	-0.0613831	0.196964	1.01309	0.00752087	-0.0573648	0.307023	-0.0301591	0.0781041	0.240866	0
0.03	-0.0615315	0.196791	1.01298	0.00880789	-0.059038	0.307726	-0.0293552	0.0772171	0.241846	0
0.04	-0.0608549	0.197179	1.01292	0.00785621	-0.0594528	0.308619	-0.031503	0.0787387	0.240774	0
0.05	-0.0600222	0.197485	1.01304	0.00646925	-0.0592348	0.308615	-0.0344198	0.0816831	0.238294	0
0.06	-0.0594567	0.19765	1.01316	0.00592437	-0.0596551	0.308624	-0.035326	0.0820952	0.237788	0
0.07	-0.0589863	0.19756	1.01326	0.00626305	-0.0608942	0.30839	-0.0342627	0.07955	0.239085	0
0.08	-0.0578464	0.197788	1.01325	0.00524513	-0.0616832	0.308918	-0.0361489	0.0800171	0.240217	0
0.09	-0.0566584	0.198269	1.01332	0.00244682	-0.0599622	0.307824	-0.0387588	0.0815581	0.238841	0
0.1	-0.0554018	0.198579	1.01342	4.27386e-05	-0.0589021	0.306586	-0.040279	0.0818321	0.238101	0
0.11	-0.0554537	0.198293	1.01329	0.00113097	-0.0600237	0.308977	-0.0386792	0.0790688	0.241149	0
0.12	-0.0548174	0.198308	1.0133	0.0016653	-0.0618993	0.310527	-0.0386713	0.077587	0.243042	0
0.13	-0.0531671	0.198757	1.01347	-0.000543079	-0.0621402	0.310774	-0.0406365	0.0770098	0.244462	0
0.14	-0.0519111	0.199112	1.01363	-0.00280067	-0.0614313	0.310409	-0.0435542	0.0798075	0.241692	0
0.15	-0.0498331	0.199872	1.01383	-0.00682525	-0.0595967	0.309665	-0.0474675	0.0819557	0.239509	0
0.16	-0.0483042	0.200243	1.0139	-0.00904686	-0.059175	0.310135	-0.050859	0.0838719	0.239577	0
0.17	-0.0490117	0.19956	1.01371	-0.0065529	-0.0610163	0.311295	-0.0503555	0.0852826	0.239432	0
0.18	-0.0486027	0.199369	1.01369	-0.00653754	-0.0616392	0.311491	-0.0512017	0.0858915	0.239519	0
0.19	-0.0481438	0.199392	1.01356	-0.00729101	-0.0612989	0.311562	-0.0496886	0.0818266	0.243282	0
0.2	-0.0486896	0.198989	1.01331	-0.00576915	-0.0623726	0.311974	-0.0477012	0.0798752	0.245305	0
0.21	-0.0472328	0.199306	1.01338	-0.00745691	-0.0636617	0.313526	-0.0521715	0.0841529	0.243562	0
0.22	-0.0457098	0.199533	1.01347	-0.0092046	-0.0649232	0.315883	-0.05546	0.0856995	0.243773	0
0.23	-0.0468697	0.198694	1.01318	-0.00572442	-0.0689878	0.317862	-0.0511732	0.0795308	0.248145	0
0.24	-0.0460787	0.198646	1.01301	-0.00644461	-0.0712794	0.317243	-0.0510738	0.0754068	0.251629	0
0.25	-0.0438636	0.199216	1.01316	-0.0102287	-0.0724894	0.315752	-0.0562244	0.0784385	0.249738	0
0.26	-0.0423059	0.199408	1.01329	-0.0123572	-0.0738391	0.31596	-0.0602798	0.0820834	0.246468	0
0.27	-0.0412176	0.199541	1.01302	-0.0142448	-0.0738692	0.319278	-0.063469	0.0837059	0.246551	0
0.28	-0.0400872	0.199709	1.0126	-0.0176628	-0.0713244	0.321332	-0.0659715	0.0824112	0.250132	0
0.29	-0.039484	0.199546	1.0124	-0.0197343	-0.0703532	0.319952	-0.0672431	0.0810445	0.252548	0
0.3	-0.038197	0.199562	1.01252	-0.0213898	-0.0722712	0.31767	-0.0703584	0.0835802	0.251864	0
0.31	-0.0371932	0.199659	1.01246	-0.0226158	-0.0740323	0.318328	-0.0735119	0.0859728	0.253675	0
0.32	-0.0361294	0.199741	1.01212	-0.0245311	-0.0743674	0.322046	-0.0761137	0.0857501	0.25751	0
0.33	-0.0346339	0.199796	1.01195	-0.0285991	-0.0717117	0.324135	-0.0788827	0.0856747	0.259276	0
0.34	-0.0343677	0.19932	1.01194	-0.0303332	-0.070585	0.325089	-0.0806115	0.08733	0.259456	0
0.35	-0.0344912	0.198609	1.0119	-0.0296232	-0.0725174	0.326529	-0.0817239	0.0891751	0.258825	0
0.36	-0.0331209	0.198399	1.01187	-0.0290971	-0.0778808	0.331635	-0.0854075	0.0914029	0.255898	0
0.37	-0.0109047	0.202479	1.01206	0.00413491	-0.199299	0.378095	-0.11833	0.0936196	0.259235	0
0.38	-0.00962498	0.202348	1.01213	-0.00074182	-0.194606	0.377987	-0.121194	0.0948562	0.25756	0
0.39	-0.0077066	0.202359	1.01228	-0.0040803	-0.194466	0.377475	-0.12449	0.0950724	0.255752	0
0.4	-0.00632159	0.201897	1.01241	-0.00373121	-0.199479	0.375985	-0.125779	0.0938689	0.255019	0
0.41	-0.00485292	0.201359	1.01251	-0.00199109	-0.207384	0.375574	-0.127532	0.09323	0.255588	0
0.42	-0.00237743	0.201572	1.01271	-0.00120315	-0.217037	0.378427	-0.133908	0.0976623	0.253344	0
0.43	-0.000638421	0.201466	1.0127	0.00510778	-0.234738	0.384983	-0.139509	0.102282	0.251801	0
0.44	0.000853187	0.200918	1.01274	0.0147439	-0.257116	0.391694	-0.14055	0.0993388	0.253376	0
0.45	0.00308337	0.200436	1.01284	0.0243111	-0.28129	0.395593	-0.141467	0.094534	0.257582	0
0.46	0.00454485	0.19965	1.01283	0.0375574	-0.309901	0.395197	-0.144161	0.094589	0.26186	0
0.47	0.00519476	0.198717	1.01297	0.0538063	-0.341879	0.390737	-0.146369	0.0958451	0.26311	0
0.48	0.00326368	0.197305	1.01268	0.0770927	-0.380328	0.387646	-0.14184	0.0917838	0.264419	0
0.49	0.00106068	0.195995	1.01261	0.101767	-0.42023	0.384157	-0.135246	0.0845659	0.266625	0
0.5	-0.0237611	0.190919	1.01077	0.153053	-0.450609	0.380483	-0.108175	0.0966911	0.265626	0
0.51	-0.0245236	0.18931	1.01069	0.176949	-0.492633	0.3738	-0.108625	0.0970588	0.266193	0
0.52	-0.0381013	0.18526	1.00965	0.220574	-0.535906	0.362546	-0.0897833	0.0957756	0.261013	0
0.53	-0.0270801	0.186084	1.01027	0.229764	-0.577068	0.35144	-0.102507	0.0910833	0.267655	0
0.54	-0.0280164	0.184648	1.0103	0.254919	-0.617095	0.337604	-0.101943	0.0914669	0.268669	0
0.55	-0.0293553	0.18318	1.01043	0.279812	-0.654966	0.323792	-0.103368	0.0968196	0.265175	0
0.56	-0.0318994	0.18116	1.01028	0.306784	-0.692418	0.311586	-0.0997632	0.0961646	0.263686	0
0.57	-0.0468169	0.17685	1.00899	0.349958	-0.728637	0.304651	-0.0819376	0.0991682	0.257951	0
0.58	-0.0253996	0.181478	1.00989	0.336312	-0.752483	0.302433	-0.120008	0.112587	0.260391	0
0.59	-0.0283554	0.179509	1.00952	0.360191	-0.778502	0.293831	-0.114857	0.109927	0.259872	0
0.6	-0.0474244	0.174046	1.00778	0.406856	-0.802811	0.29381	-0.0874874	0.105988	0.255792	0
0.61	-0.0495053	0.172532	1.00753	0.425242	-0.815673	0.295312	-0.0851791	0.105665	0.257308	0
0.62	-0.0541846	0.170569	1.00704	0.445699	-0.823592	0.289395	-0.0813195	0.110118	0.255333	0
0.63	-0.0668927	0.166868	1.00581	0.47869	-0.832222	0.280403	-0.0636166	0.109078	0.250006	0
0.64	-0.0613615	0.16675	1.00661	0.477363	-0.822924	0.27383	-0.0745444	0.112556	0.253743	0
0.65	-0.0652739	0.165012	1.00643	0.490925	-0.815266	0.268396	-0.0686275	0.109501	0.254211	0
0.66	-0.0786524	0.161291	1.00516	0.520875	-0.812122	0.261823	-0.0465862	0.101449	0.24811	0
0.67	-0.0820982	0.159373	1.00492	0.531901	-0.798244	0.255916	-0.0409001	0.0968073	0.246963	0
0.68	-0.073846	0.160837	1.00573	0.520943	-0.769414	0.253529	-0.0541561	0.100233	0.252726	0
0.69	-0.0758363	0.158468	1.00593	0.523332	-0.743484	0.24298	-0.0553089	0.103078	0.25325	0
0.7	-0.079477	0.156869	1.00585	0.530229	-0.719289	0.232	-0.0546427	0.108555	0.249502	0
0.71	-0.0837293	0.155187	1.00537	0.536773	-0.692736	0.229735	-0.0523511	0.112033	0.248399	0
0.72	-0.0882588	0.153661	1.00477	0.541704	-0.661247	0.229149	-0.0480402	0.113187	0.248043	0
0.73	-0.070398	0.156237	1.00646	0.512936	-0.624489	0.222858	-0.0712816	0.108025	0.258458	0
0.74	-0.0732857	0.154956	1.0063	0.512621	-0.588344	0.215795	-0.0686188	0.107388	0.258441	0
